<mxfile host="app.diagrams.net" modified="2021-12-05T14:07:20.169Z" agent="5.0 (Windows NT 10.0; Win64; x64) AppleWebKit/537.36 (KHTML, like Gecko) Chrome/96.0.4664.45 Safari/537.36" etag="6Ft-aguU8IYnrIn6ycd-" version="15.9.1" type="github">
  <diagram id="C5RBs43oDa-KdzZeNtuy" name="Page-1">
    <mxGraphModel dx="868" dy="482" grid="1" gridSize="10" guides="1" tooltips="1" connect="1" arrows="1" fold="1" page="1" pageScale="1" pageWidth="827" pageHeight="1169" math="0" shadow="0">
      <root>
        <mxCell id="WIyWlLk6GJQsqaUBKTNV-0" />
        <mxCell id="WIyWlLk6GJQsqaUBKTNV-1" parent="WIyWlLk6GJQsqaUBKTNV-0" />
        <mxCell id="ufvQBNr53-Tk7y8vbcVA-3" value="" style="edgeStyle=orthogonalEdgeStyle;rounded=0;orthogonalLoop=1;jettySize=auto;html=1;" edge="1" parent="WIyWlLk6GJQsqaUBKTNV-1" source="ufvQBNr53-Tk7y8vbcVA-0" target="ufvQBNr53-Tk7y8vbcVA-2">
          <mxGeometry relative="1" as="geometry" />
        </mxCell>
        <mxCell id="ufvQBNr53-Tk7y8vbcVA-0" value="BEAM_FLUX.root" style="rounded=0;whiteSpace=wrap;html=1;" vertex="1" parent="WIyWlLk6GJQsqaUBKTNV-1">
          <mxGeometry x="10" y="210" width="110" height="50" as="geometry" />
        </mxCell>
        <mxCell id="ufvQBNr53-Tk7y8vbcVA-11" value="" style="edgeStyle=orthogonalEdgeStyle;rounded=0;orthogonalLoop=1;jettySize=auto;html=1;" edge="1" parent="WIyWlLk6GJQsqaUBKTNV-1" source="ufvQBNr53-Tk7y8vbcVA-2" target="ufvQBNr53-Tk7y8vbcVA-10">
          <mxGeometry relative="1" as="geometry" />
        </mxCell>
        <mxCell id="ufvQBNr53-Tk7y8vbcVA-2" value="converter" style="shape=parallelogram;perimeter=parallelogramPerimeter;whiteSpace=wrap;html=1;fixedSize=1;rounded=0;" vertex="1" parent="WIyWlLk6GJQsqaUBKTNV-1">
          <mxGeometry x="17.5" y="140" width="95" height="35" as="geometry" />
        </mxCell>
        <mxCell id="ufvQBNr53-Tk7y8vbcVA-22" value="" style="edgeStyle=orthogonalEdgeStyle;rounded=0;orthogonalLoop=1;jettySize=auto;html=1;" edge="1" parent="WIyWlLk6GJQsqaUBKTNV-1" source="ufvQBNr53-Tk7y8vbcVA-10">
          <mxGeometry relative="1" as="geometry">
            <mxPoint x="170" y="85" as="targetPoint" />
          </mxGeometry>
        </mxCell>
        <mxCell id="ufvQBNr53-Tk7y8vbcVA-10" value="BEAM_FLUX.txt" style="rounded=0;whiteSpace=wrap;html=1;" vertex="1" parent="WIyWlLk6GJQsqaUBKTNV-1">
          <mxGeometry x="10" y="60" width="110" height="50" as="geometry" />
        </mxCell>
        <mxCell id="ufvQBNr53-Tk7y8vbcVA-27" value="" style="edgeStyle=orthogonalEdgeStyle;rounded=0;orthogonalLoop=1;jettySize=auto;html=1;" edge="1" parent="WIyWlLk6GJQsqaUBKTNV-1" source="ufvQBNr53-Tk7y8vbcVA-15">
          <mxGeometry relative="1" as="geometry">
            <mxPoint x="350" y="80" as="targetPoint" />
          </mxGeometry>
        </mxCell>
        <mxCell id="ufvQBNr53-Tk7y8vbcVA-15" value="params.txt" style="swimlane;fontStyle=2;childLayout=stackLayout;horizontal=1;startSize=30;horizontalStack=0;resizeParent=1;resizeParentMax=0;resizeLast=0;collapsible=1;marginBottom=0;" vertex="1" parent="WIyWlLk6GJQsqaUBKTNV-1">
          <mxGeometry x="170" y="20" width="120" height="120" as="geometry" />
        </mxCell>
        <mxCell id="ufvQBNr53-Tk7y8vbcVA-16" value="flux" style="text;strokeColor=none;fillColor=none;align=left;verticalAlign=middle;spacingLeft=4;spacingRight=4;overflow=hidden;points=[[0,0.5],[1,0.5]];portConstraint=eastwest;rotatable=0;" vertex="1" parent="ufvQBNr53-Tk7y8vbcVA-15">
          <mxGeometry y="30" width="120" height="30" as="geometry" />
        </mxCell>
        <mxCell id="ufvQBNr53-Tk7y8vbcVA-17" value="target (Ar)" style="text;strokeColor=none;fillColor=none;align=left;verticalAlign=middle;spacingLeft=4;spacingRight=4;overflow=hidden;points=[[0,0.5],[1,0.5]];portConstraint=eastwest;rotatable=0;" vertex="1" parent="ufvQBNr53-Tk7y8vbcVA-15">
          <mxGeometry y="60" width="120" height="30" as="geometry" />
        </mxCell>
        <mxCell id="ufvQBNr53-Tk7y8vbcVA-18" value="..." style="text;strokeColor=none;fillColor=none;align=left;verticalAlign=middle;spacingLeft=4;spacingRight=4;overflow=hidden;points=[[0,0.5],[1,0.5]];portConstraint=eastwest;rotatable=0;" vertex="1" parent="ufvQBNr53-Tk7y8vbcVA-15">
          <mxGeometry y="90" width="120" height="30" as="geometry" />
        </mxCell>
        <mxCell id="ufvQBNr53-Tk7y8vbcVA-26" value="&lt;span style=&quot;font-style: normal&quot;&gt;&lt;b&gt;NuWro&lt;/b&gt;&lt;/span&gt;" style="ellipse;whiteSpace=wrap;html=1;fontStyle=2;startSize=30;" vertex="1" parent="WIyWlLk6GJQsqaUBKTNV-1">
          <mxGeometry x="350" y="50" width="120" height="60" as="geometry" />
        </mxCell>
        <mxCell id="ufvQBNr53-Tk7y8vbcVA-28" value="" style="endArrow=none;html=1;rounded=0;" edge="1" parent="WIyWlLk6GJQsqaUBKTNV-1">
          <mxGeometry width="50" height="50" relative="1" as="geometry">
            <mxPoint x="470" y="80" as="sourcePoint" />
            <mxPoint x="500" y="80" as="targetPoint" />
          </mxGeometry>
        </mxCell>
        <mxCell id="ufvQBNr53-Tk7y8vbcVA-29" value="" style="endArrow=none;html=1;rounded=0;" edge="1" parent="WIyWlLk6GJQsqaUBKTNV-1">
          <mxGeometry width="50" height="50" relative="1" as="geometry">
            <mxPoint x="501" y="125" as="sourcePoint" />
            <mxPoint x="501" y="35" as="targetPoint" />
          </mxGeometry>
        </mxCell>
        <mxCell id="ufvQBNr53-Tk7y8vbcVA-30" value="" style="edgeStyle=orthogonalEdgeStyle;rounded=0;orthogonalLoop=1;jettySize=auto;html=1;" edge="1" parent="WIyWlLk6GJQsqaUBKTNV-1">
          <mxGeometry relative="1" as="geometry">
            <mxPoint x="502" y="36" as="sourcePoint" />
            <mxPoint x="551" y="36" as="targetPoint" />
          </mxGeometry>
        </mxCell>
        <mxCell id="ufvQBNr53-Tk7y8vbcVA-31" value="" style="edgeStyle=orthogonalEdgeStyle;rounded=0;orthogonalLoop=1;jettySize=auto;html=1;" edge="1" parent="WIyWlLk6GJQsqaUBKTNV-1">
          <mxGeometry relative="1" as="geometry">
            <mxPoint x="502" y="80" as="sourcePoint" />
            <mxPoint x="551" y="80" as="targetPoint" />
          </mxGeometry>
        </mxCell>
        <mxCell id="ufvQBNr53-Tk7y8vbcVA-32" value="" style="edgeStyle=orthogonalEdgeStyle;rounded=0;orthogonalLoop=1;jettySize=auto;html=1;" edge="1" parent="WIyWlLk6GJQsqaUBKTNV-1">
          <mxGeometry relative="1" as="geometry">
            <mxPoint x="502" y="125" as="sourcePoint" />
            <mxPoint x="551" y="125" as="targetPoint" />
          </mxGeometry>
        </mxCell>
        <mxCell id="ufvQBNr53-Tk7y8vbcVA-33" value="&lt;span style=&quot;font-style: normal&quot;&gt;&lt;b&gt;GENIE&lt;/b&gt;&lt;/span&gt;" style="ellipse;whiteSpace=wrap;html=1;fontStyle=2;startSize=30;" vertex="1" parent="WIyWlLk6GJQsqaUBKTNV-1">
          <mxGeometry x="350" y="370" width="120" height="60" as="geometry" />
        </mxCell>
        <mxCell id="ufvQBNr53-Tk7y8vbcVA-35" value="" style="endArrow=none;html=1;rounded=0;" edge="1" parent="WIyWlLk6GJQsqaUBKTNV-1">
          <mxGeometry width="50" height="50" relative="1" as="geometry">
            <mxPoint x="65" y="380" as="sourcePoint" />
            <mxPoint x="64.5" y="260" as="targetPoint" />
          </mxGeometry>
        </mxCell>
        <mxCell id="ufvQBNr53-Tk7y8vbcVA-36" value="" style="endArrow=classic;html=1;rounded=0;" edge="1" parent="WIyWlLk6GJQsqaUBKTNV-1">
          <mxGeometry width="50" height="50" relative="1" as="geometry">
            <mxPoint x="66" y="380" as="sourcePoint" />
            <mxPoint x="337" y="380" as="targetPoint" />
          </mxGeometry>
        </mxCell>
        <mxCell id="ufvQBNr53-Tk7y8vbcVA-37" value="xsec.xml" style="rounded=0;whiteSpace=wrap;html=1;" vertex="1" parent="WIyWlLk6GJQsqaUBKTNV-1">
          <mxGeometry x="12.5" y="391" width="110" height="50" as="geometry" />
        </mxCell>
        <mxCell id="ufvQBNr53-Tk7y8vbcVA-39" value="" style="endArrow=classic;html=1;rounded=0;" edge="1" parent="WIyWlLk6GJQsqaUBKTNV-1">
          <mxGeometry width="50" height="50" relative="1" as="geometry">
            <mxPoint x="122.5" y="415.5" as="sourcePoint" />
            <mxPoint x="340" y="416" as="targetPoint" />
          </mxGeometry>
        </mxCell>
        <mxCell id="ufvQBNr53-Tk7y8vbcVA-40" value="" style="edgeStyle=orthogonalEdgeStyle;rounded=0;orthogonalLoop=1;jettySize=auto;html=1;" edge="1" parent="WIyWlLk6GJQsqaUBKTNV-1">
          <mxGeometry relative="1" as="geometry">
            <mxPoint x="512" y="407" as="sourcePoint" />
            <mxPoint x="561" y="407" as="targetPoint" />
          </mxGeometry>
        </mxCell>
      </root>
    </mxGraphModel>
  </diagram>
</mxfile>
